<svg width="32" height="32" viewBox="0 0 32 32" fill="none" xmlns="http://www.w3.org/2000/svg">
<path d="M16.0004 0.776367C7.37599 0.776367 0.390625 7.76564 0.390625 16.3861C0.390625 23.2843 4.86282 29.1341 11.0638 31.1959C11.8443 31.3429 12.1305 30.8603 12.1305 30.4453C12.1305 30.0746 12.1175 29.0925 12.111 27.7917C7.76884 28.7334 6.85306 25.6973 6.85306 25.6973C6.14282 23.8957 5.11648 23.4144 5.11648 23.4144C3.70249 22.4466 5.22575 22.4661 5.22575 22.4661C6.79323 22.5754 7.61664 24.0739 7.61664 24.0739C9.00851 26.4609 11.2706 25.7715 12.163 25.3721C12.3035 24.3627 12.7054 23.6746 13.1516 23.2843C9.68493 22.8941 6.04136 21.5517 6.04136 15.5705C6.04136 13.8664 6.64623 12.4746 7.64786 11.3819C7.47225 10.9877 6.94542 9.40076 7.78445 7.25051C7.78445 7.25051 9.09176 6.83165 12.0771 8.85051C13.3259 8.5032 14.6527 8.33149 15.9796 8.32368C17.3064 8.33149 18.6332 8.5032 19.882 8.85051C22.8479 6.83165 24.1552 7.25051 24.1552 7.25051C24.9942 9.40076 24.4674 10.9877 24.3113 11.3819C25.3064 12.4746 25.9113 13.8664 25.9113 15.5705C25.9113 21.5673 22.2625 22.8876 18.7893 23.2713C19.3357 23.7396 19.843 24.697 19.843 26.1591C19.843 28.2482 19.8235 29.9263 19.8235 30.4336C19.8235 30.8434 20.0966 31.3312 20.8966 31.1751C27.1418 29.1276 31.6101 23.2739 31.6101 16.3861C31.6101 7.76564 24.6209 0.776367 16.0004 0.776367Z" fill="#181717"/>
</svg>
