<svg width="32" height="32" viewBox="0 0 32 32" fill="none" xmlns="http://www.w3.org/2000/svg">
<g clip-path="url(#clip0_3969_17221)">
<path d="M16.0004 0.609375C11.7597 0.609375 11.2303 0.628887 9.56526 0.703034C7.90282 0.781082 6.77111 1.04255 5.77599 1.42889C4.74965 1.82694 3.8781 2.36157 3.01046 3.22921C2.14282 4.09685 1.60689 4.9671 1.21014 5.99474C0.823796 6.98986 0.561032 8.12157 0.484284 9.78401C0.406235 11.449 0.390625 11.9785 0.390625 16.2191C0.390625 20.4598 0.410137 20.9892 0.484284 22.6543C0.562332 24.3154 0.823796 25.4484 1.21014 26.4435C1.60819 27.4686 2.14282 28.3414 3.01046 29.2091C3.8781 30.0754 4.74835 30.6126 5.77599 31.0094C6.77241 31.3944 7.90412 31.6585 9.56526 31.7352C11.2303 31.8133 11.7597 31.8289 16.0004 31.8289C20.241 31.8289 20.7705 31.8094 22.4355 31.7352C24.0966 31.6572 25.2297 31.3944 26.2248 31.0094C27.2498 30.6113 28.1227 30.0754 28.9903 29.2091C29.8566 28.3414 30.3939 27.4725 30.7906 26.4435C31.1757 25.4484 31.4397 24.3154 31.5165 22.6543C31.5945 20.9892 31.6101 20.4598 31.6101 16.2191C31.6101 11.9785 31.5906 11.449 31.5165 9.78401C31.4384 8.12287 31.1757 6.98856 30.7906 5.99474C30.3926 4.9684 29.8566 4.09685 28.9903 3.22921C28.1227 2.36157 27.2537 1.82564 26.2248 1.42889C25.2297 1.04255 24.0966 0.779782 22.4355 0.703034C20.7705 0.624985 20.241 0.609375 16.0004 0.609375ZM16.0004 3.41913C20.1669 3.41913 20.6638 3.43994 22.3093 3.51149C23.8313 3.58303 24.6573 3.83539 25.2062 4.05133C25.9373 4.3336 26.455 4.67181 27.004 5.21686C27.549 5.7632 27.8872 6.28222 28.1695 7.01328C28.3828 7.56222 28.6378 8.38824 28.7067 9.91019C28.7809 11.557 28.7978 12.0513 28.7978 16.2191C28.7978 20.3869 28.7783 20.8825 28.7015 22.5281C28.6222 24.05 28.3685 24.876 28.1539 25.425C27.8625 26.156 27.5308 26.6738 26.9844 27.2227C26.4394 27.7677 25.9126 28.106 25.1893 28.3882C24.643 28.6016 23.804 28.8565 22.282 28.9255C20.6248 28.9996 20.137 29.0165 15.9614 29.0165C11.7844 29.0165 11.2966 28.997 9.64071 28.9203C8.11745 28.8409 7.27843 28.5873 6.73209 28.3726C5.99193 28.0812 5.48331 27.7495 4.93827 27.2032C4.39063 26.6582 4.04071 26.1313 3.76754 25.4081C3.5529 24.8617 3.30054 24.0227 3.22119 22.5008C3.16266 20.8617 3.14184 20.3557 3.14184 16.1996C3.14184 12.0422 3.16266 11.5349 3.22119 9.87637C3.30054 8.35442 3.5529 7.51669 3.76754 6.97035C4.04071 6.22889 4.39063 5.72157 4.93827 5.17393C5.48331 4.62889 5.99193 4.27767 6.73209 4.0058C7.27843 3.78986 8.09924 3.5362 9.62119 3.45816C11.2797 3.39962 11.7675 3.38011 15.9418 3.38011L16.0004 3.41913ZM16.0004 8.20352C11.5711 8.20352 7.98477 11.7938 7.98477 16.2191C7.98477 20.6484 11.575 24.2347 16.0004 24.2347C20.4297 24.2347 24.016 20.6445 24.016 16.2191C24.016 11.7899 20.4257 8.20352 16.0004 8.20352ZM16.0004 21.4224C13.1256 21.4224 10.7971 19.0939 10.7971 16.2191C10.7971 13.3443 13.1256 11.0159 16.0004 11.0159C18.8752 11.0159 21.2036 13.3443 21.2036 16.2191C21.2036 19.0939 18.8752 21.4224 16.0004 21.4224ZM26.2066 7.88742C26.2066 8.92157 25.3662 9.76059 24.3334 9.76059C23.2992 9.76059 22.4602 8.92027 22.4602 7.88742C22.4602 6.85458 23.3005 6.01555 24.3334 6.01555C25.3649 6.01425 26.2066 6.85458 26.2066 7.88742Z" fill="#E4405F"/>
</g>
<defs>
<clipPath id="clip0_3969_17221">
<rect width="31.2195" height="31.2195" fill="white" transform="translate(0.390381 0.609375)"/>
</clipPath>
</defs>
</svg>
