<svg width="32" height="32" viewBox="0 0 32 32" fill="none" xmlns="http://www.w3.org/2000/svg">
<path d="M30.3074 30.529H24.3852V21.2345C24.3852 19.0181 24.3402 16.1658 21.2991 16.1658C18.2114 16.1658 17.7398 18.5775 17.7398 21.0709V30.529H11.8176V11.4159H17.5065V14.0212H17.5831C18.378 12.5191 20.311 10.9336 23.1987 10.9336C29.1993 10.9336 30.3091 14.8891 30.3091 20.0379L30.3074 30.529ZM5.12884 8.80066C3.22254 8.80066 1.69116 7.25519 1.69116 5.35423C1.69116 3.45493 3.2242 1.91113 5.12884 1.91113C7.02848 1.91113 8.56819 3.45493 8.56819 5.35423C8.56819 7.25519 7.02681 8.80066 5.12884 8.80066ZM8.09828 30.529H2.15941V11.4159H8.09828V30.529Z" fill="#0A66C2"/>
</svg>
